PathFileType	4	(X/Y/Z)	SUBJ26_0_static_RCNL2025.trc
DataRate	CameraRate	NumFrames	NumMarkers	Units	OrigDataRate	OrigDataStartFrame	OrigNumFrames
100	100	7	25	mm	100	58	101
Frame#	Time	R_Shoulder			L_Shoulder			C7			J_Notch			R_Elbow			L_Elbow			R_Wrist			L_Wrist			R_Asis			L_Asis			Sacral			Thoracic			Sternum			R_Thigh_Lateral			R_Knee_Lateral			R_Shank_Lateral			R_Ankle_Lateral			R_Heel			R_Toe			L_Thigh_Lateral			L_Knee_Lateral			L_Shank_Lateral			L_Ankle_Lateral			L_Heel			L_Toe		
		X1	Y1	Z1	X2	Y2	Z2	X3	Y3	Z3	X4	Y4	Z4	X5	Y5	Z5	X6	Y6	Z6	X7	Y7	Z7	X8	Y8	Z8	X9	Y9	Z9	X10	Y10	Z10	X11	Y11	Z11	X12	Y12	Z12	X13	Y13	Z13	X14	Y14	Z14	X15	Y15	Z15	X16	Y16	Z16	X17	Y17	Z17	X18	Y18	Z18	X19	Y19	Z19	X20	Y20	Z20	X21	Y21	Z21	X22	Y22	Z22	X23	Y23	Z23	X24	Y24	Z24	X25	Y25	Z25
58	0.57000000	-220.697891	1338.544312	-61.704697	-242.475220	1354.569702	-382.214569	-307.657135	1386.608154	-206.960159	-154.756958	1304.148682	-231.476501	-288.277466	1015.637878	27.498518	-302.945953	1033.999878	-492.384491	-206.179398	779.377228	66.187561	-213.893951	808.496216	-540.251465	-141.365738	935.811584	-100.678886	-168.707764	932.543945	-400.369781	-358.242523	924.295227	-222.500671	-347.601440	1037.557983	-224.458069	-81.857132	1050.322754	-233.323685	-253.401825	593.524048	-49.274174	-274.583832	446.878174	-120.123550	-300.032257	297.091064	-77.959564	-303.041931	55.148205	-150.208588	-353.189240	40.607025	-210.899124	-178.581757	44.851868	-171.806091	-246.468460	613.979614	-435.096619	-278.563232	450.284607	-354.659454	-289.748322	268.239716	-419.621796	-295.847015	61.614643	-328.789642	-357.546112	39.000916	-280.147461	-175.184402	43.576721	-289.704010
59	0.58000000	-220.830170	1338.541138	-61.735954	-242.597885	1354.591309	-382.249512	-307.802277	1386.607666	-206.972717	-154.611755	1304.186523	-231.791977	-288.442535	1015.648010	27.465208	-303.001312	1033.979004	-492.389038	-206.531189	779.317139	66.210442	-213.858284	808.497040	-540.274750	-141.480652	935.863770	-100.787048	-168.787933	932.568604	-400.419617	-358.286285	924.358337	-222.624252	-347.693298	1037.510254	-224.521042	-82.000534	1050.338135	-233.302322	-253.331726	593.455444	-49.373428	-274.539246	446.901306	-120.194794	-300.151001	297.401764	-77.849716	-303.004181	55.201221	-150.226822	-353.110291	40.623856	-210.950943	-178.580246	44.879192	-171.810822	-246.519867	614.006653	-435.144958	-278.609222	450.311218	-354.752930	-289.895355	268.283600	-419.681946	-295.908142	61.624340	-328.768799	-357.575806	38.993530	-280.150146	-175.215454	43.567455	-289.705017
60	0.59000000	-220.938293	1338.571777	-61.814045	-242.735184	1354.563477	-382.294281	-307.852448	1386.625000	-207.083038	-154.673065	1304.184570	-231.866150	-288.639435	1015.620056	27.364748	-303.001099	1033.915527	-492.395325	-206.529396	779.193695	66.081688	-213.775352	808.473236	-540.195801	-141.664536	935.943054	-100.924500	-168.799286	932.571533	-400.415833	-358.351013	924.370422	-222.717133	-347.763947	1037.527344	-224.572922	-82.186134	1050.264282	-233.349686	-253.315033	593.554199	-49.375732	-274.479645	446.893372	-120.235962	-300.194031	297.463898	-77.802589	-303.048218	55.123611	-150.211960	-353.238220	40.739929	-210.988449	-178.591110	44.864792	-171.797958	-246.508850	614.004517	-435.207336	-278.612091	450.217438	-354.783600	-289.987213	268.244354	-419.691223	-295.910187	61.598782	-328.770020	-357.587097	38.957634	-280.196075	-175.144485	43.509308	-289.640503
61	0.60000000	-221.051651	1338.566040	-61.804359	-242.820023	1354.542114	-382.395355	-307.997345	1386.571533	-207.126190	-154.813431	1304.180054	-231.897095	-288.800690	1015.626404	27.348621	-303.098877	1033.887207	-492.392670	-206.718369	779.176544	65.958414	-213.791656	808.445587	-540.169403	-141.753357	935.918579	-101.087677	-168.841812	932.611450	-400.544373	-358.373169	924.270996	-222.819443	-347.893280	1037.547729	-224.719070	-82.316277	1050.262451	-233.406113	-253.436462	593.486877	-49.439392	-274.353577	446.864532	-120.334137	-299.934418	297.096008	-78.064682	-303.012909	55.166065	-150.231049	-353.211548	40.673023	-210.983215	-178.579651	44.855511	-171.810745	-246.583725	614.013123	-435.284088	-278.766418	450.240326	-354.851654	-290.055695	268.198730	-419.715637	-295.923553	61.605633	-328.781097	-357.444458	38.828957	-280.163696	-175.142899	43.504768	-289.635834
62	0.61000000	-221.160782	1338.527466	-61.866840	-242.954086	1354.486328	-382.417419	-308.040436	1386.555176	-207.196472	-154.947037	1304.157471	-232.010086	-289.086456	1015.677429	27.310963	-303.102234	1033.814453	-492.393768	-207.057861	779.161194	65.938549	-213.759819	808.381592	-540.129974	-141.880188	936.022522	-101.058540	-168.971039	932.593201	-400.606201	-358.570740	924.277039	-222.985641	-348.035400	1037.472412	-224.791336	-82.313438	1050.303833	-233.447510	-253.370850	593.560242	-49.485840	-274.234070	446.814178	-120.440979	-299.770721	297.029877	-78.132904	-303.027374	55.149818	-150.234192	-353.160065	40.613747	-210.931885	-178.560196	44.865055	-171.813354	-246.668884	613.991455	-435.337006	-278.792694	450.271576	-354.952393	-290.150726	268.140472	-419.802673	-295.865845	61.584179	-328.853760	-357.341064	38.710953	-280.238647	-175.138351	43.502277	-289.618347
63	0.62000000	-221.322754	1338.593506	-62.000797	-243.095749	1354.491943	-382.499451	-308.179474	1386.551392	-207.251923	-155.105591	1304.179932	-231.993988	-289.241638	1015.696411	27.295237	-303.214355	1033.731445	-492.392822	-207.380783	779.218445	65.991322	-213.724503	808.342102	-540.019592	-141.811340	936.120972	-101.143250	-168.990570	932.635010	-400.746765	-358.614014	924.249817	-223.068176	-348.073578	1037.438477	-224.861420	-82.492821	1050.372192	-233.596115	-253.327301	593.454346	-49.538860	-274.158569	446.775970	-120.499611	-299.724335	297.133179	-78.117493	-302.932587	55.199825	-150.310532	-353.117065	40.565678	-210.927887	-178.568634	44.873070	-171.820572	-246.753372	613.980530	-435.322662	-278.866486	450.275757	-354.994293	-290.333984	268.137482	-419.816681	-295.968384	61.589066	-328.805420	-357.496979	38.846107	-280.180481	-175.274734	43.567558	-289.739349
64	0.63000000	-221.302002	1338.483887	-62.109222	-243.182449	1354.435913	-382.634033	-308.258301	1386.547852	-207.359756	-155.233566	1304.181641	-232.055466	-289.492767	1015.773254	27.205179	-303.199127	1033.682617	-492.428986	-207.662216	779.260712	66.029856	-213.682747	808.275696	-539.904144	-141.751114	936.172241	-101.219872	-169.276779	932.812012	-400.483612	-358.683655	924.251526	-223.141418	-348.204041	1037.468262	-224.999588	-82.523453	1050.383301	-233.664993	-253.258789	593.398193	-49.590080	-274.068970	446.798859	-120.562035	-299.612610	297.092773	-78.190651	-302.927948	55.191967	-150.324387	-353.039276	40.544586	-210.960358	-178.565292	44.862957	-171.845306	-246.691254	614.008911	-435.430023	-278.963440	450.215271	-355.139648	-290.433990	268.061768	-419.861969	-295.891479	61.542236	-328.850647	-357.529877	38.847607	-280.169312	-175.292130	43.585339	-289.741760
